<?xml version="1.0" encoding="UTF-8" standalone="no"?>
<!DOCTYPE svg PUBLIC "-//W3C//DTD SVG 1.1//EN"
 "http://www.w3.org/Graphics/SVG/1.1/DTD/svg11.dtd">
<!-- Generated by graphviz version 2.40.1 (20161225.0304)
 -->
<!-- Title: %0 Pages: 1 -->
<svg width="102pt" height="54pt"
 viewBox="0.00 0.00 102.20 54.40" xmlns="http://www.w3.org/2000/svg" xmlns:xlink="http://www.w3.org/1999/xlink">
<g id="graph0" class="graph" transform="scale(1 1) rotate(0) translate(4 50.4)">
<title>%0</title>
<polygon fill="#ffffff" stroke="transparent" points="-4,4 -4,-50.4 98.2016,-50.4 98.2016,4 -4,4"/>
<text text-anchor="middle" x="47.1008" y="-28" font-family="Roboto Condensed, sans-serif" font-size="16.00" fill="#000000">redux&#45;thunk</text>
<!-- redux&#45;thunk@2.3.0 -->
<g id="node1" class="node">
<title>redux&#45;thunk@2.3.0</title>
<path fill="none" stroke="#000000" d="M86.527,-19.3011C86.527,-19.3011 7.6746,-19.3011 7.6746,-19.3011 4.4409,-19.3011 1.2072,-16.0674 1.2072,-12.8337 1.2072,-12.8337 1.2072,-6.3663 1.2072,-6.3663 1.2072,-3.1326 4.4409,.1011 7.6746,.1011 7.6746,.1011 86.527,.1011 86.527,.1011 89.7607,.1011 92.9944,-3.1326 92.9944,-6.3663 92.9944,-6.3663 92.9944,-12.8337 92.9944,-12.8337 92.9944,-16.0674 89.7607,-19.3011 86.527,-19.3011"/>
<text text-anchor="middle" x="47.1008" y="-6.3" font-family="Roboto Condensed, sans-serif" font-size="11.00" fill="#000000">redux&#45;thunk@2.3.0</text>
</g>
</g>
</svg>
